<svg width="43" height="51" viewBox="0 0 43 51" fill="none" xmlns="http://www.w3.org/2000/svg">
<g id="Vector" style="mix-blend-mode:soft-light">
<path d="M42.292 46.1536L32.849 34.9496C35.6803 30.5738 37.0022 25.0846 36.5464 19.5954C36.0907 14.1062 33.8915 9.02817 30.395 5.39133C26.8984 1.7545 22.3664 -0.168784 17.7181 0.011636C13.0699 0.192056 8.65357 2.46267 5.36502 6.36287C2.07646 10.2631 0.161937 15.5008 0.00981118 21.0136C-0.142315 26.5263 1.47935 31.9013 4.54585 36.0482C7.61234 40.195 11.894 42.8033 16.5224 43.3438C21.1507 43.8842 25.7791 42.3165 29.4687 38.9586L38.9196 50.1697C39.1416 50.4329 39.4051 50.6418 39.6951 50.7842C39.9851 50.9267 40.2959 51 40.6098 51C40.9237 51 41.2345 50.9267 41.5245 50.7842C41.8145 50.6418 42.078 50.4329 42.2999 50.1697C42.5219 49.9065 42.6979 49.594 42.8181 49.25C42.9382 48.9061 43 48.5375 43 48.1652C43 47.7929 42.9382 47.4243 42.8181 47.0804C42.6979 46.7364 42.5219 46.4239 42.2999 46.1607L42.292 46.1536ZM4.81231 21.7434C4.81231 18.5718 5.60532 15.4714 7.09105 12.8343C8.57678 10.1972 10.6885 8.14177 13.1592 6.92804C15.6299 5.71431 18.3485 5.39674 20.9714 6.01549C23.5943 6.63425 26.0035 8.16154 27.8945 10.4042C29.7855 12.6469 31.0732 15.5043 31.595 18.6149C32.1167 21.7256 31.8489 24.95 30.8255 27.8802C29.8021 30.8104 28.0691 33.3149 25.8455 35.0769C23.622 36.839 21.0078 37.7795 18.3335 37.7795C14.7486 37.7751 11.3116 36.0842 8.77666 33.0778C6.24174 30.0714 4.816 25.9951 4.81231 21.7434Z" fill="#443c68"/>
</g>
</svg>
